<svg class="diagram-root" style="background: #f5f6f6" xmlns="http://www.w3.org/2000/svg" xmlns:xlink="http://www.w3.org/1999/xlink"><style>.diagram-root { font-family: "Helvetica Neue", sans-serif; font-size: 12px; } .t { overflow: visible; } .t-bg { y: 40; fill: #fff;   } .th { fill: #005aa0;   } .tht { fill: #fff; font-size: 14px;  } .tf { fill: #323c46; overflow: visible; } .tf.pk { fill: #005aa0; font-weight: bold; } .tf.fk { font-weight: bold; } .ty { fill: #adb1b5; font-weight: normal; text-anchor: end; } .r { fill: transparent; stroke: #c3c3c3; stroke-width: 1; } .l { stroke: 1; } .i { fill: #c2c7ce; stroke: #c2c7ce; } .i.ix { fill: #afb3b6; stroke: #000; } .fa { fill: transparent; overflow: visible; } .fa .bg.hover { fill: #f7f7f7; } .c { cy: 12; r: 4; stroke: #d2d2dc; fill: #d2d2dc; } .hr { fill: transparent; stroke: #323c46; stroke-opacity: 0.035; stroke-width: 13; } .dc { stroke: #fa5a3c; fill: #fa5a3c; } .x { stroke: white; stroke-width: 1; } .hl .th { fill: #1b9bff; } .hl .tht {  } .fhl .bg { fill: #e7f4ff; } .fhls .bg {  } .r.hl { stroke: #1b9bff; } .dim { opacity: 0.25; }</style><g class="drawing-wrapper" transform="translate(67.55555555555557, 55.55777777777778) scale(1,1)"><g class="rs"><path d="M 338.98 389.22 m -1, 0 a 1,1 0 1,0 2,0 a 1,1 0 1,0 -2,0 M 338.98 389.22 m -0.5, 0 a 0.5,0.5 0 1,0 1,0 a 0.5,0.5 0 1,0 -1,0  M338.98 389.22 L338.98 389.22 350.98 389.22 M 338.98 395.22 m -1, 0 a 1,1 0 1,0 2,0 a 1,1 0 1,0 -2,0 M 338.98 395.22 m -0.5, 0 a 0.5,0.5 0 1,0 1,0 a 0.5,0.5 0 1,0 -1,0  M338.98 395.22 L338.98 395.22 345.98 389.22 338.98 383.22 M 338.98 383.22 m -1, 0 a 1,1 0 1,0 2,0 a 1,1 0 1,0 -2,0 M 338.98 383.22 m -0.5, 0 a 0.5,0.5 0 1,0 1,0 a 0.5,0.5 0 1,0 -1,0  M350.98 389.22 Q 371.49 389.22, 391.99 294.67 T 433 200.11 M 445 200.11 m -1, 0 a 1,1 0 1,0 2,0 a 1,1 0 1,0 -2,0 M 445 200.11 m -0.5, 0 a 0.5,0.5 0 1,0 1,0 a 0.5,0.5 0 1,0 -1,0  M445 200.11 L445 200.11 433 200.11 M439 206.11 L439 206.11 439 194.11" id="h3620250256" class="r"></path><path d="M 162.79 414.22 m -1, 0 a 1,1 0 1,0 2,0 a 1,1 0 1,0 -2,0 M 162.79 414.22 m -0.5, 0 a 0.5,0.5 0 1,0 1,0 a 0.5,0.5 0 1,0 -1,0  M162.79 414.22 L162.79 414.22 150.79 414.22 M 162.79 420.22 m -1, 0 a 1,1 0 1,0 2,0 a 1,1 0 1,0 -2,0 M 162.79 420.22 m -0.5, 0 a 0.5,0.5 0 1,0 1,0 a 0.5,0.5 0 1,0 -1,0  M162.79 420.22 L162.79 420.22 155.79 414.22 162.79 408.22 M 162.79 408.22 m -1, 0 a 1,1 0 1,0 2,0 a 1,1 0 1,0 -2,0 M 162.79 408.22 m -0.5, 0 a 0.5,0.5 0 1,0 1,0 a 0.5,0.5 0 1,0 -1,0  M150.79 414.22 Q 131.24 414.22, 111.69 284.5 T 72.58 154.76999999999998 M 60.58 154.76999999999998 m -1, 0 a 1,1 0 1,0 2,0 a 1,1 0 1,0 -2,0 M 60.58 154.76999999999998 m -0.5, 0 a 0.5,0.5 0 1,0 1,0 a 0.5,0.5 0 1,0 -1,0  M60.58 154.76999999999998 L60.58 154.76999999999998 72.58 154.76999999999998 M66.58 160.76999999999998 L66.58 160.76999999999998 66.58 148.76999999999998" id="h2714561845" class="r"></path><path d="M 555.71 225.11 m -1, 0 a 1,1 0 1,0 2,0 a 1,1 0 1,0 -2,0 M 555.71 225.11 m -0.5, 0 a 0.5,0.5 0 1,0 1,0 a 0.5,0.5 0 1,0 -1,0  M555.71 225.11 L555.71 225.11 567.71 225.11 M 555.71 231.11 m -1, 0 a 1,1 0 1,0 2,0 a 1,1 0 1,0 -2,0 M 555.71 231.11 m -0.5, 0 a 0.5,0.5 0 1,0 1,0 a 0.5,0.5 0 1,0 -1,0  M555.71 231.11 L555.71 231.11 562.71 225.11 555.71 219.11 M 555.71 219.11 m -1, 0 a 1,1 0 1,0 2,0 a 1,1 0 1,0 -2,0 M 555.71 219.11 m -0.5, 0 a 0.5,0.5 0 1,0 1,0 a 0.5,0.5 0 1,0 -1,0  M567.71 225.11 Q 589.23 225.11, 610.75 233 T 653.78 240.89 M 665.78 240.89 m -1, 0 a 1,1 0 1,0 2,0 a 1,1 0 1,0 -2,0 M 665.78 240.89 m -0.5, 0 a 0.5,0.5 0 1,0 1,0 a 0.5,0.5 0 1,0 -1,0  M665.78 240.89 L665.78 240.89 653.78 240.89 M659.78 246.89 L659.78 246.89 659.78 234.89" id="h133153459" class="r"></path><path d="M 178.88 31.44 m -1, 0 a 1,1 0 1,0 2,0 a 1,1 0 1,0 -2,0 M 178.88 31.44 m -0.5, 0 a 0.5,0.5 0 1,0 1,0 a 0.5,0.5 0 1,0 -1,0  M178.88 31.44 L178.88 31.44 166.88 31.44 M 178.88 37.44 m -1, 0 a 1,1 0 1,0 2,0 a 1,1 0 1,0 -2,0 M 178.88 37.44 m -0.5, 0 a 0.5,0.5 0 1,0 1,0 a 0.5,0.5 0 1,0 -1,0  M178.88 37.44 L178.88 37.44 171.88 31.44 178.88 25.44 M 178.88 25.44 m -1, 0 a 1,1 0 1,0 2,0 a 1,1 0 1,0 -2,0 M 178.88 25.44 m -0.5, 0 a 0.5,0.5 0 1,0 1,0 a 0.5,0.5 0 1,0 -1,0  M166.88 31.44 Q 143.31 31.44, 119.73 93.1 T 72.58 154.76999999999998 M 60.58 154.76999999999998 m -1, 0 a 1,1 0 1,0 2,0 a 1,1 0 1,0 -2,0 M 60.58 154.76999999999998 m -0.5, 0 a 0.5,0.5 0 1,0 1,0 a 0.5,0.5 0 1,0 -1,0  M60.58 154.76999999999998 L60.58 154.76999999999998 72.58 154.76999999999998 M66.58 160.76999999999998 L66.58 160.76999999999998 66.58 148.76999999999998" id="h1248694035" class="r"></path><path d="M 297.49 56.44 m -1, 0 a 1,1 0 1,0 2,0 a 1,1 0 1,0 -2,0 M 297.49 56.44 m -0.5, 0 a 0.5,0.5 0 1,0 1,0 a 0.5,0.5 0 1,0 -1,0  M297.49 56.44 L297.49 56.44 309.49 56.44 M 297.49 62.44 m -1, 0 a 1,1 0 1,0 2,0 a 1,1 0 1,0 -2,0 M 297.49 62.44 m -0.5, 0 a 0.5,0.5 0 1,0 1,0 a 0.5,0.5 0 1,0 -1,0  M297.49 62.44 L297.49 62.44 304.49 56.44 297.49 50.44 M 297.49 50.44 m -1, 0 a 1,1 0 1,0 2,0 a 1,1 0 1,0 -2,0 M 297.49 50.44 m -0.5, 0 a 0.5,0.5 0 1,0 1,0 a 0.5,0.5 0 1,0 -1,0  M309.49 56.44 Q 340.37 56.44, 371.25 128.28 T 433 200.11 M 445 200.11 m -1, 0 a 1,1 0 1,0 2,0 a 1,1 0 1,0 -2,0 M 445 200.11 m -0.5, 0 a 0.5,0.5 0 1,0 1,0 a 0.5,0.5 0 1,0 -1,0  M445 200.11 L445 200.11 433 200.11 M439 206.11 L439 206.11 439 194.11" id="h1130742295" class="r"></path><path d="M 278.89 188.11 m -1, 0 a 1,1 0 1,0 2,0 a 1,1 0 1,0 -2,0 M 278.89 188.11 m -0.5, 0 a 0.5,0.5 0 1,0 1,0 a 0.5,0.5 0 1,0 -1,0  M278.89 188.11 L278.89 188.11 290.89 188.11 M284.89 194.11 L284.89 194.11 284.89 182.11 M290.89 188.11 Q 326.42 188.11, 361.95 194.11 T 433 200.11 M 445 200.11 m -1, 0 a 1,1 0 1,0 2,0 a 1,1 0 1,0 -2,0 M 445 200.11 m -0.5, 0 a 0.5,0.5 0 1,0 1,0 a 0.5,0.5 0 1,0 -1,0  M445 200.11 L445 200.11 433 200.11 M439 206.11 L439 206.11 439 194.11" id="h221257298" class="r"></path></g><g class="hrs"></g><g class="ts"><svg width="106.14" height="100" x="-45.56" y="97.77" id="h3708248841" class="t"><rect height="40" width="106.14" class="th"></rect><text x="13" y="25" class="tht">Departments</text><rect height="60" width="106.14" class="t-bg"></rect><text x="13" y="61" class="tf pk">dept_no</text><path d="M7,14A2,2 0 0,1 5,12A2,2 0 0,1 7,10A2,2 0 0,1 9,12A2,2 0 0,1 7,14M12.65,10C11.83,7.67 9.61,6 7, 6A6, 6 0 0, 0 1, 12A6, 6 0 0, 0 7, 18C9.61, 18 11.83, 16.33 12.65, 14H17V18H21V14H23V10H12.65Z" class="i pk" transform="translate(78.14, 48) scale(0.65)"></path><text x="13" y="86" class="tf">dept_name</text></svg><svg width="176.19" height="100" x="162.79" y="332.22" id="h253171898" class="t"><rect height="40" width="176.19" class="th"></rect><text x="13" y="25" class="tht">Department_Employees</text><rect height="60" width="176.19" class="t-bg"></rect><text x="13" y="61" class="tf fk">emp_no</text><text x="13" y="86" class="tf fk">dept_no</text></svg><svg width="110.71" height="225" x="445" y="143.11" id="h3299212598" class="t"><rect height="40" width="110.71" class="th"></rect><text x="13" y="25" class="tht">Employees</text><rect height="185" width="110.71" class="t-bg"></rect><text x="13" y="61" class="tf pk">emp_no</text><path d="M7,14A2,2 0 0,1 5,12A2,2 0 0,1 7,10A2,2 0 0,1 9,12A2,2 0 0,1 7,14M12.65,10C11.83,7.67 9.61,6 7, 6A6, 6 0 0, 0 1, 12A6, 6 0 0, 0 7, 18C9.61, 18 11.83, 16.33 12.65, 14H17V18H21V14H23V10H12.65Z" class="i pk" transform="translate(82.71, 48) scale(0.65)"></path><text x="13" y="86" class="tf fk">emp_title_id</text><text x="13" y="111" class="tf">birth_date</text><text x="13" y="136" class="tf">first_name</text><text x="13" y="161" class="tf">last_name</text><text x="13" y="186" class="tf">sex</text><text x="13" y="211" class="tf">hire_date</text></svg><svg width="95.69" height="100" x="665.78" y="183.89" id="h3517680912" class="t"><rect height="40" width="95.69" class="th"></rect><text x="13" y="25" class="tht">Titles</text><rect height="60" width="95.69" class="t-bg"></rect><text x="13" y="61" class="tf pk">title_id</text><path d="M7,14A2,2 0 0,1 5,12A2,2 0 0,1 7,10A2,2 0 0,1 9,12A2,2 0 0,1 7,14M12.65,10C11.83,7.67 9.61,6 7, 6A6, 6 0 0, 0 1, 12A6, 6 0 0, 0 7, 18C9.61, 18 11.83, 16.33 12.65, 14H17V18H21V14H23V10H12.65Z" class="i pk" transform="translate(67.69, 48) scale(0.65)"></path><text x="13" y="86" class="tf">title</text></svg><svg width="118.61" height="100" x="178.88" y="-25.56" id="h754932316" class="t"><rect height="40" width="118.61" class="th"></rect><text x="13" y="25" class="tht">Dept_Manager</text><rect height="60" width="118.61" class="t-bg"></rect><text x="13" y="61" class="tf fk">dept_no</text><text x="13" y="86" class="tf fk">emp_no</text></svg><svg width="90" height="100" x="188.89" y="131.11" id="h3858243705" class="t"><rect height="40" width="90" class="th"></rect><text x="13" y="25" class="tht">Salaries</text><rect height="60" width="90" class="t-bg"></rect><text x="13" y="61" class="tf fk">emp_no</text><text x="13" y="86" class="tf">salary</text></svg></g></g><text class="qdbd-link" x="10" y="20">www.quickdatabasediagrams.com</text></svg>